<svg width="479" height="68" viewBox="0 0 479 68" fill="none" xmlns="http://www.w3.org/2000/svg">
<g filter="url(#filter0_d_284_93)">
<mask id="path-1-outside-1_284_93" maskUnits="userSpaceOnUse" x="4.75" y="0.375" width="471" height="60" fill="black">
<rect fill="white" x="4.75" y="0.375" width="471" height="60"/>
<path d="M25.7188 48C35.3438 48 41.3125 43.0312 41.3125 35.0938C41.3125 29.125 36.8125 24.6562 30.6875 24.1875V23.9375C35.4688 23.2188 39.1562 19.0938 39.1562 14.1562C39.1562 7.25 33.8438 2.90625 25.375 2.90625H5.75V48H25.7188ZM15.1875 9.9375H22.9375C27.3438 9.9375 29.875 12 29.875 15.625C29.875 19.4375 27 21.6562 21.9688 21.6562H15.1875V9.9375ZM15.1875 40.9688V27.875H23.0938C28.6562 27.875 31.6875 30.125 31.6875 34.3438C31.6875 38.6562 28.75 40.9688 23.3125 40.9688H15.1875Z"/>
<path d="M76.8438 14.5H67.7188V33.6875C67.7188 38.125 65.1875 41.0312 61.125 41.0312C57.0938 41.0312 54.875 38.6562 54.875 34.1875V14.5H45.75V36.0938C45.75 43.9062 50.5625 48.625 57.8125 48.625C62.875 48.625 66.1875 46.1875 67.8438 41.9688H68.0312V48H76.8438V14.5Z"/>
<path d="M82.9375 48H92.0625V14.5H82.9375V48ZM87.5 10.8125C90.25 10.8125 92.375 8.71875 92.375 6.09375C92.375 3.4375 90.25 1.375 87.5 1.375C84.75 1.375 82.625 3.4375 82.625 6.09375C82.625 8.71875 84.75 10.8125 87.5 10.8125Z"/>
<path d="M98.375 48H107.5V2.90625H98.375V48Z"/>
<path d="M126.094 48.5312C131.031 48.5312 134.906 45.9375 136.531 42.25H136.688V48H145.688V2.90625H136.562V20.25H136.375C134.75 16.5312 131 13.9688 126.156 13.9688C117.75 13.9688 112.438 20.5625 112.438 31.1875C112.438 41.9062 117.719 48.5312 126.094 48.5312ZM129.188 21.2812C133.719 21.2812 136.625 25.1562 136.625 31.25C136.625 37.375 133.719 41.1875 129.188 41.1875C124.594 41.1875 121.781 37.4062 121.781 31.25C121.781 25.125 124.594 21.2812 129.188 21.2812Z"/>
<path d="M179.844 48.7188C189.969 48.7188 196.438 42.25 196.438 31.2188C196.438 20.3438 189.875 13.7812 179.844 13.7812C169.812 13.7812 163.25 20.375 163.25 31.2188C163.25 42.2188 169.719 48.7188 179.844 48.7188ZM179.844 41.75C175.344 41.75 172.5 37.9688 172.5 31.25C172.5 24.5938 175.406 20.75 179.844 20.75C184.281 20.75 187.156 24.5938 187.156 31.25C187.156 37.9688 184.312 41.75 179.844 41.75Z"/>
<path d="M201.156 48H210.281V29.2812C210.281 24.5625 212.906 21.8125 217.406 21.8125C218.719 21.8125 219.969 22.0312 220.719 22.3438V14.3125C220.094 14.125 219.188 13.9688 218.125 13.9688C214.188 13.9688 211.344 16.2812 210.156 20.5312H209.969V14.5H201.156V48Z"/>
<path d="M236.594 24.3438C236.594 29.2812 239.844 32.5938 246.188 34.0312L252.375 35.4062C255.375 36.125 256.5 37.0625 256.5 38.75C256.5 40.9375 254.406 42.3125 250.938 42.3125C247.312 42.3125 245.094 40.6875 244.656 37.875H235.75C236.25 44.4062 241.75 48.7188 250.688 48.7188C259.531 48.7188 265.594 44.375 265.594 37.7812C265.594 32.7812 262.875 30.125 256.156 28.625L249.75 27.25C246.812 26.5625 245.375 25.4375 245.375 23.7812C245.375 21.625 247.438 20.1875 250.594 20.1875C253.969 20.1875 256.125 21.8438 256.312 24.5312H264.719C264.594 18.0312 259.125 13.7812 250.719 13.7812C242.125 13.7812 236.594 17.9688 236.594 24.3438Z"/>
<path d="M300.594 26.9688C300.188 19.375 294.438 13.7812 285.375 13.7812C275.344 13.7812 268.938 20.4688 268.938 31.2188C268.938 42.1562 275.344 48.7188 285.438 48.7188C294.25 48.7188 300.156 43.625 300.625 35.7188H292.125C291.562 39.375 289.188 41.5625 285.531 41.5625C281 41.5625 278.188 37.8125 278.188 31.2188C278.188 24.75 281 20.9375 285.5 20.9375C289.25 20.9375 291.594 23.4375 292.125 26.9688H300.594Z"/>
<path d="M317.969 41.9375C314.875 41.9375 312.812 40.375 312.812 37.875C312.812 35.5 314.75 33.9688 318.156 33.7188L325.219 33.2812V35.7188C325.219 39.3438 321.938 41.9375 317.969 41.9375ZM314.969 48.5312C319.156 48.5312 323.312 46.4375 325.188 42.875H325.375V48H334.188V24.9688C334.188 18.2188 328.594 13.7812 320 13.7812C311.125 13.7812 305.594 18.25 305.25 24.75H313.594C314.031 22.2812 316.188 20.5938 319.594 20.5938C323.031 20.5938 325.219 22.4062 325.219 25.5312V27.75L316.781 28.25C308.438 28.75 303.75 32.2812 303.75 38.375C303.75 44.4062 308.594 48.5312 314.969 48.5312Z"/>
<path d="M340.312 48H349.438V2.90625H340.312V48Z"/>
<path d="M370.625 20.5312C374.688 20.5312 377.469 23.4688 377.656 27.75H363.438C363.75 23.5625 366.625 20.5312 370.625 20.5312ZM377.781 37.75C376.938 40.3125 374.375 41.9688 371.031 41.9688C366.375 41.9688 363.344 38.6875 363.344 33.9062V33.3438H386.438V30.5625C386.438 20.375 380.281 13.7812 370.531 13.7812C360.625 13.7812 354.375 20.7188 354.375 31.4062C354.375 42.125 360.562 48.7188 370.875 48.7188C379.156 48.7188 385.156 44.3125 386.156 37.75H377.781Z"/>
<path d="M434.781 14.5H425.656V33.6875C425.656 38.125 423.125 41.0312 419.062 41.0312C415.031 41.0312 412.812 38.6562 412.812 34.1875V14.5H403.688V36.0938C403.688 43.9062 408.5 48.625 415.75 48.625C420.812 48.625 424.125 46.1875 425.781 41.9688H425.969V48H434.781V14.5Z"/>
<path d="M460.281 13.9688C455.438 13.9688 451.719 16.4062 449.906 20.3438H449.719V14.5H440.719V58.9375H449.844V42.375H450.031C451.812 46.1562 455.562 48.5312 460.438 48.5312C468.812 48.5312 474 42.0312 474 31.25C474 20.4375 468.781 13.9688 460.281 13.9688ZM457.219 41.1875C452.75 41.1875 449.812 37.3125 449.812 31.25C449.812 25.25 452.75 21.2812 457.219 21.2812C461.781 21.2812 464.656 25.1875 464.656 31.25C464.656 37.3438 461.781 41.1875 457.219 41.1875Z"/>
</mask>
<path d="M25.7188 48C35.3438 48 41.3125 43.0312 41.3125 35.0938C41.3125 29.125 36.8125 24.6562 30.6875 24.1875V23.9375C35.4688 23.2188 39.1562 19.0938 39.1562 14.1562C39.1562 7.25 33.8438 2.90625 25.375 2.90625H5.75V48H25.7188ZM15.1875 9.9375H22.9375C27.3438 9.9375 29.875 12 29.875 15.625C29.875 19.4375 27 21.6562 21.9688 21.6562H15.1875V9.9375ZM15.1875 40.9688V27.875H23.0938C28.6562 27.875 31.6875 30.125 31.6875 34.3438C31.6875 38.6562 28.75 40.9688 23.3125 40.9688H15.1875Z" fill="#272727"/>
<path d="M76.8438 14.5H67.7188V33.6875C67.7188 38.125 65.1875 41.0312 61.125 41.0312C57.0938 41.0312 54.875 38.6562 54.875 34.1875V14.5H45.75V36.0938C45.75 43.9062 50.5625 48.625 57.8125 48.625C62.875 48.625 66.1875 46.1875 67.8438 41.9688H68.0312V48H76.8438V14.5Z" fill="#272727"/>
<path d="M82.9375 48H92.0625V14.5H82.9375V48ZM87.5 10.8125C90.25 10.8125 92.375 8.71875 92.375 6.09375C92.375 3.4375 90.25 1.375 87.5 1.375C84.75 1.375 82.625 3.4375 82.625 6.09375C82.625 8.71875 84.75 10.8125 87.5 10.8125Z" fill="#272727"/>
<path d="M98.375 48H107.5V2.90625H98.375V48Z" fill="#272727"/>
<path d="M126.094 48.5312C131.031 48.5312 134.906 45.9375 136.531 42.25H136.688V48H145.688V2.90625H136.562V20.25H136.375C134.75 16.5312 131 13.9688 126.156 13.9688C117.75 13.9688 112.438 20.5625 112.438 31.1875C112.438 41.9062 117.719 48.5312 126.094 48.5312ZM129.188 21.2812C133.719 21.2812 136.625 25.1562 136.625 31.25C136.625 37.375 133.719 41.1875 129.188 41.1875C124.594 41.1875 121.781 37.4062 121.781 31.25C121.781 25.125 124.594 21.2812 129.188 21.2812Z" fill="#272727"/>
<path d="M179.844 48.7188C189.969 48.7188 196.438 42.25 196.438 31.2188C196.438 20.3438 189.875 13.7812 179.844 13.7812C169.812 13.7812 163.25 20.375 163.25 31.2188C163.25 42.2188 169.719 48.7188 179.844 48.7188ZM179.844 41.75C175.344 41.75 172.5 37.9688 172.5 31.25C172.5 24.5938 175.406 20.75 179.844 20.75C184.281 20.75 187.156 24.5938 187.156 31.25C187.156 37.9688 184.312 41.75 179.844 41.75Z" fill="#272727"/>
<path d="M201.156 48H210.281V29.2812C210.281 24.5625 212.906 21.8125 217.406 21.8125C218.719 21.8125 219.969 22.0312 220.719 22.3438V14.3125C220.094 14.125 219.188 13.9688 218.125 13.9688C214.188 13.9688 211.344 16.2812 210.156 20.5312H209.969V14.5H201.156V48Z" fill="#272727"/>
<path d="M236.594 24.3438C236.594 29.2812 239.844 32.5938 246.188 34.0312L252.375 35.4062C255.375 36.125 256.5 37.0625 256.5 38.75C256.5 40.9375 254.406 42.3125 250.938 42.3125C247.312 42.3125 245.094 40.6875 244.656 37.875H235.75C236.25 44.4062 241.75 48.7188 250.688 48.7188C259.531 48.7188 265.594 44.375 265.594 37.7812C265.594 32.7812 262.875 30.125 256.156 28.625L249.75 27.25C246.812 26.5625 245.375 25.4375 245.375 23.7812C245.375 21.625 247.438 20.1875 250.594 20.1875C253.969 20.1875 256.125 21.8438 256.312 24.5312H264.719C264.594 18.0312 259.125 13.7812 250.719 13.7812C242.125 13.7812 236.594 17.9688 236.594 24.3438Z" fill="#272727"/>
<path d="M300.594 26.9688C300.188 19.375 294.438 13.7812 285.375 13.7812C275.344 13.7812 268.938 20.4688 268.938 31.2188C268.938 42.1562 275.344 48.7188 285.438 48.7188C294.25 48.7188 300.156 43.625 300.625 35.7188H292.125C291.562 39.375 289.188 41.5625 285.531 41.5625C281 41.5625 278.188 37.8125 278.188 31.2188C278.188 24.75 281 20.9375 285.5 20.9375C289.25 20.9375 291.594 23.4375 292.125 26.9688H300.594Z" fill="#272727"/>
<path d="M317.969 41.9375C314.875 41.9375 312.812 40.375 312.812 37.875C312.812 35.5 314.75 33.9688 318.156 33.7188L325.219 33.2812V35.7188C325.219 39.3438 321.938 41.9375 317.969 41.9375ZM314.969 48.5312C319.156 48.5312 323.312 46.4375 325.188 42.875H325.375V48H334.188V24.9688C334.188 18.2188 328.594 13.7812 320 13.7812C311.125 13.7812 305.594 18.25 305.25 24.75H313.594C314.031 22.2812 316.188 20.5938 319.594 20.5938C323.031 20.5938 325.219 22.4062 325.219 25.5312V27.75L316.781 28.25C308.438 28.75 303.75 32.2812 303.75 38.375C303.75 44.4062 308.594 48.5312 314.969 48.5312Z" fill="#272727"/>
<path d="M340.312 48H349.438V2.90625H340.312V48Z" fill="#272727"/>
<path d="M370.625 20.5312C374.688 20.5312 377.469 23.4688 377.656 27.75H363.438C363.75 23.5625 366.625 20.5312 370.625 20.5312ZM377.781 37.75C376.938 40.3125 374.375 41.9688 371.031 41.9688C366.375 41.9688 363.344 38.6875 363.344 33.9062V33.3438H386.438V30.5625C386.438 20.375 380.281 13.7812 370.531 13.7812C360.625 13.7812 354.375 20.7188 354.375 31.4062C354.375 42.125 360.562 48.7188 370.875 48.7188C379.156 48.7188 385.156 44.3125 386.156 37.75H377.781Z" fill="#272727"/>
<path d="M434.781 14.5H425.656V33.6875C425.656 38.125 423.125 41.0312 419.062 41.0312C415.031 41.0312 412.812 38.6562 412.812 34.1875V14.5H403.688V36.0938C403.688 43.9062 408.5 48.625 415.75 48.625C420.812 48.625 424.125 46.1875 425.781 41.9688H425.969V48H434.781V14.5Z" fill="#272727"/>
<path d="M460.281 13.9688C455.438 13.9688 451.719 16.4062 449.906 20.3438H449.719V14.5H440.719V58.9375H449.844V42.375H450.031C451.812 46.1562 455.562 48.5312 460.438 48.5312C468.812 48.5312 474 42.0312 474 31.25C474 20.4375 468.781 13.9688 460.281 13.9688ZM457.219 41.1875C452.75 41.1875 449.812 37.3125 449.812 31.25C449.812 25.25 452.75 21.2812 457.219 21.2812C461.781 21.2812 464.656 25.1875 464.656 31.25C464.656 37.3438 461.781 41.1875 457.219 41.1875Z" fill="#272727"/>
<path d="M25.7188 48C35.3438 48 41.3125 43.0312 41.3125 35.0938C41.3125 29.125 36.8125 24.6562 30.6875 24.1875V23.9375C35.4688 23.2188 39.1562 19.0938 39.1562 14.1562C39.1562 7.25 33.8438 2.90625 25.375 2.90625H5.75V48H25.7188ZM15.1875 9.9375H22.9375C27.3438 9.9375 29.875 12 29.875 15.625C29.875 19.4375 27 21.6562 21.9688 21.6562H15.1875V9.9375ZM15.1875 40.9688V27.875H23.0938C28.6562 27.875 31.6875 30.125 31.6875 34.3438C31.6875 38.6562 28.75 40.9688 23.3125 40.9688H15.1875Z" stroke="black" stroke-width="2" mask="url(#path-1-outside-1_284_93)"/>
<path d="M76.8438 14.5H67.7188V33.6875C67.7188 38.125 65.1875 41.0312 61.125 41.0312C57.0938 41.0312 54.875 38.6562 54.875 34.1875V14.5H45.75V36.0938C45.75 43.9062 50.5625 48.625 57.8125 48.625C62.875 48.625 66.1875 46.1875 67.8438 41.9688H68.0312V48H76.8438V14.5Z" stroke="black" stroke-width="2" mask="url(#path-1-outside-1_284_93)"/>
<path d="M82.9375 48H92.0625V14.5H82.9375V48ZM87.5 10.8125C90.25 10.8125 92.375 8.71875 92.375 6.09375C92.375 3.4375 90.25 1.375 87.5 1.375C84.75 1.375 82.625 3.4375 82.625 6.09375C82.625 8.71875 84.75 10.8125 87.5 10.8125Z" stroke="black" stroke-width="2" mask="url(#path-1-outside-1_284_93)"/>
<path d="M98.375 48H107.5V2.90625H98.375V48Z" stroke="black" stroke-width="2" mask="url(#path-1-outside-1_284_93)"/>
<path d="M126.094 48.5312C131.031 48.5312 134.906 45.9375 136.531 42.25H136.688V48H145.688V2.90625H136.562V20.25H136.375C134.75 16.5312 131 13.9688 126.156 13.9688C117.75 13.9688 112.438 20.5625 112.438 31.1875C112.438 41.9062 117.719 48.5312 126.094 48.5312ZM129.188 21.2812C133.719 21.2812 136.625 25.1562 136.625 31.25C136.625 37.375 133.719 41.1875 129.188 41.1875C124.594 41.1875 121.781 37.4062 121.781 31.25C121.781 25.125 124.594 21.2812 129.188 21.2812Z" stroke="black" stroke-width="2" mask="url(#path-1-outside-1_284_93)"/>
<path d="M179.844 48.7188C189.969 48.7188 196.438 42.25 196.438 31.2188C196.438 20.3438 189.875 13.7812 179.844 13.7812C169.812 13.7812 163.25 20.375 163.25 31.2188C163.25 42.2188 169.719 48.7188 179.844 48.7188ZM179.844 41.75C175.344 41.75 172.5 37.9688 172.5 31.25C172.5 24.5938 175.406 20.75 179.844 20.75C184.281 20.75 187.156 24.5938 187.156 31.25C187.156 37.9688 184.312 41.75 179.844 41.75Z" stroke="black" stroke-width="2" mask="url(#path-1-outside-1_284_93)"/>
<path d="M201.156 48H210.281V29.2812C210.281 24.5625 212.906 21.8125 217.406 21.8125C218.719 21.8125 219.969 22.0312 220.719 22.3438V14.3125C220.094 14.125 219.188 13.9688 218.125 13.9688C214.188 13.9688 211.344 16.2812 210.156 20.5312H209.969V14.5H201.156V48Z" stroke="black" stroke-width="2" mask="url(#path-1-outside-1_284_93)"/>
<path d="M236.594 24.3438C236.594 29.2812 239.844 32.5938 246.188 34.0312L252.375 35.4062C255.375 36.125 256.5 37.0625 256.5 38.75C256.5 40.9375 254.406 42.3125 250.938 42.3125C247.312 42.3125 245.094 40.6875 244.656 37.875H235.75C236.25 44.4062 241.75 48.7188 250.688 48.7188C259.531 48.7188 265.594 44.375 265.594 37.7812C265.594 32.7812 262.875 30.125 256.156 28.625L249.75 27.25C246.812 26.5625 245.375 25.4375 245.375 23.7812C245.375 21.625 247.438 20.1875 250.594 20.1875C253.969 20.1875 256.125 21.8438 256.312 24.5312H264.719C264.594 18.0312 259.125 13.7812 250.719 13.7812C242.125 13.7812 236.594 17.9688 236.594 24.3438Z" stroke="black" stroke-width="2" mask="url(#path-1-outside-1_284_93)"/>
<path d="M300.594 26.9688C300.188 19.375 294.438 13.7812 285.375 13.7812C275.344 13.7812 268.938 20.4688 268.938 31.2188C268.938 42.1562 275.344 48.7188 285.438 48.7188C294.25 48.7188 300.156 43.625 300.625 35.7188H292.125C291.562 39.375 289.188 41.5625 285.531 41.5625C281 41.5625 278.188 37.8125 278.188 31.2188C278.188 24.75 281 20.9375 285.5 20.9375C289.25 20.9375 291.594 23.4375 292.125 26.9688H300.594Z" stroke="black" stroke-width="2" mask="url(#path-1-outside-1_284_93)"/>
<path d="M317.969 41.9375C314.875 41.9375 312.812 40.375 312.812 37.875C312.812 35.5 314.75 33.9688 318.156 33.7188L325.219 33.2812V35.7188C325.219 39.3438 321.938 41.9375 317.969 41.9375ZM314.969 48.5312C319.156 48.5312 323.312 46.4375 325.188 42.875H325.375V48H334.188V24.9688C334.188 18.2188 328.594 13.7812 320 13.7812C311.125 13.7812 305.594 18.25 305.25 24.75H313.594C314.031 22.2812 316.188 20.5938 319.594 20.5938C323.031 20.5938 325.219 22.4062 325.219 25.5312V27.75L316.781 28.25C308.438 28.75 303.75 32.2812 303.75 38.375C303.75 44.4062 308.594 48.5312 314.969 48.5312Z" stroke="black" stroke-width="2" mask="url(#path-1-outside-1_284_93)"/>
<path d="M340.312 48H349.438V2.90625H340.312V48Z" stroke="black" stroke-width="2" mask="url(#path-1-outside-1_284_93)"/>
<path d="M370.625 20.5312C374.688 20.5312 377.469 23.4688 377.656 27.75H363.438C363.75 23.5625 366.625 20.5312 370.625 20.5312ZM377.781 37.75C376.938 40.3125 374.375 41.9688 371.031 41.9688C366.375 41.9688 363.344 38.6875 363.344 33.9062V33.3438H386.438V30.5625C386.438 20.375 380.281 13.7812 370.531 13.7812C360.625 13.7812 354.375 20.7188 354.375 31.4062C354.375 42.125 360.562 48.7188 370.875 48.7188C379.156 48.7188 385.156 44.3125 386.156 37.75H377.781Z" stroke="black" stroke-width="2" mask="url(#path-1-outside-1_284_93)"/>
<path d="M434.781 14.5H425.656V33.6875C425.656 38.125 423.125 41.0312 419.062 41.0312C415.031 41.0312 412.812 38.6562 412.812 34.1875V14.5H403.688V36.0938C403.688 43.9062 408.5 48.625 415.75 48.625C420.812 48.625 424.125 46.1875 425.781 41.9688H425.969V48H434.781V14.5Z" stroke="black" stroke-width="2" mask="url(#path-1-outside-1_284_93)"/>
<path d="M460.281 13.9688C455.438 13.9688 451.719 16.4062 449.906 20.3438H449.719V14.5H440.719V58.9375H449.844V42.375H450.031C451.812 46.1562 455.562 48.5312 460.438 48.5312C468.812 48.5312 474 42.0312 474 31.25C474 20.4375 468.781 13.9688 460.281 13.9688ZM457.219 41.1875C452.75 41.1875 449.812 37.3125 449.812 31.25C449.812 25.25 452.75 21.2812 457.219 21.2812C461.781 21.2812 464.656 25.1875 464.656 31.25C464.656 37.3438 461.781 41.1875 457.219 41.1875Z" stroke="black" stroke-width="2" mask="url(#path-1-outside-1_284_93)"/>
</g>
<defs>
<filter id="filter0_d_284_93" x="0.75" y="0.375" width="478.25" height="67.5625" filterUnits="userSpaceOnUse" color-interpolation-filters="sRGB">
<feFlood flood-opacity="0" result="BackgroundImageFix"/>
<feColorMatrix in="SourceAlpha" type="matrix" values="0 0 0 0 0 0 0 0 0 0 0 0 0 0 0 0 0 0 127 0" result="hardAlpha"/>
<feOffset dy="4"/>
<feGaussianBlur stdDeviation="2"/>
<feComposite in2="hardAlpha" operator="out"/>
<feColorMatrix type="matrix" values="0 0 0 0 0 0 0 0 0 0 0 0 0 0 0 0 0 0 0.25 0"/>
<feBlend mode="normal" in2="BackgroundImageFix" result="effect1_dropShadow_284_93"/>
<feBlend mode="normal" in="SourceGraphic" in2="effect1_dropShadow_284_93" result="shape"/>
</filter>
</defs>
</svg>
