<svg width="684" height="73" viewBox="0 0 684 73" fill="none" xmlns="http://www.w3.org/2000/svg">
<path d="M10.667 0.496094C4.39746 0.496094 0.47168 4.7002 0.47168 11.4385C0.47168 18.1621 4.39746 22.3662 10.667 22.3662C16.9219 22.3662 20.8623 18.1621 20.8623 11.4385C20.8623 4.7002 16.9219 0.496094 10.667 0.496094ZM10.667 4.1875C14.124 4.1875 16.3359 7 16.3359 11.4385C16.3359 15.8623 14.124 18.6602 10.667 18.6602C7.19531 18.6602 4.9834 15.8623 4.9834 11.4385C4.9834 7 7.20996 4.1875 10.667 4.1875Z" fill="#FFCE07"/>
<path d="M37.8545 6.29688H33.5771V15.291C33.5771 17.3711 32.3906 18.7334 30.4863 18.7334C28.5967 18.7334 27.5566 17.6201 27.5566 15.5254V6.29688H23.2793V16.4189C23.2793 20.0811 25.5352 22.293 28.9336 22.293C31.3066 22.293 32.8594 21.1504 33.6357 19.1729H33.7236V22H37.8545V6.29688Z" fill="#FFCE07"/>
<path d="M40.6377 22H44.915V13.2256C44.915 11.0137 46.1455 9.72461 48.2549 9.72461C48.8701 9.72461 49.4561 9.82715 49.8076 9.97363V6.20898C49.5146 6.12109 49.0898 6.04785 48.5918 6.04785C46.7461 6.04785 45.4131 7.13184 44.8564 9.12402H44.7686V6.29688H40.6377V22Z" fill="#FFCE07"/>
<path d="M57.8789 0.862305V22H62.3027V15.335H66.2578C70.7109 15.335 73.8018 12.4346 73.8018 8.09863C73.8018 3.74805 70.8135 0.862305 66.4775 0.862305H57.8789ZM62.3027 4.36328H65.3057C67.8398 4.36328 69.3047 5.71094 69.3047 8.11328C69.3047 10.5303 67.8252 11.8779 65.291 11.8779H62.3027V4.36328Z" fill="#FFCE07"/>
<path d="M76.0576 22H80.335V13.2256C80.335 11.0137 81.5654 9.72461 83.6748 9.72461C84.29 9.72461 84.876 9.82715 85.2275 9.97363V6.20898C84.9346 6.12109 84.5098 6.04785 84.0117 6.04785C82.166 6.04785 80.833 7.13184 80.2764 9.12402H80.1885V6.29688H76.0576V22Z" fill="#FFCE07"/>
<path d="M93.665 22.3369C98.4111 22.3369 101.443 19.3047 101.443 14.1338C101.443 9.03613 98.3672 5.95996 93.665 5.95996C88.9629 5.95996 85.8867 9.05078 85.8867 14.1338C85.8867 19.29 88.9189 22.3369 93.665 22.3369ZM93.665 19.0703C91.5557 19.0703 90.2227 17.2979 90.2227 14.1484C90.2227 11.0283 91.585 9.22656 93.665 9.22656C95.7451 9.22656 97.0928 11.0283 97.0928 14.1484C97.0928 17.2979 95.7598 19.0703 93.665 19.0703Z" fill="#FFCE07"/>
<path d="M110.906 18.6602C108.782 18.6602 107.464 16.9902 107.464 14.1191C107.464 11.2627 108.797 9.47559 110.906 9.47559C113.045 9.47559 114.407 11.292 114.407 14.1191C114.407 16.9609 113.045 18.6602 110.906 18.6602ZM110.833 27.918C115.535 27.918 118.67 25.5303 118.67 21.7803V6.29688H114.451V9.03613H114.378C113.558 7.23438 111.785 6.04785 109.529 6.04785C105.545 6.04785 103.084 9.10938 103.084 14.0898C103.084 18.9971 105.618 21.9561 109.456 21.9561C111.727 21.9561 113.572 20.8135 114.305 19.1436H114.393V21.8975C114.393 23.7139 113.162 24.9443 110.95 24.9443C109.324 24.9443 108.094 24.1973 107.757 23.1133H103.567C103.904 25.9111 106.702 27.918 110.833 27.918Z" fill="#FFCE07"/>
<path d="M121.468 22H125.745V13.2256C125.745 11.0137 126.976 9.72461 129.085 9.72461C129.7 9.72461 130.286 9.82715 130.638 9.97363V6.20898C130.345 6.12109 129.92 6.04785 129.422 6.04785C127.576 6.04785 126.243 7.13184 125.687 9.12402H125.599V6.29688H121.468V22Z" fill="#FFCE07"/>
<path d="M138.914 9.12402C140.818 9.12402 142.122 10.501 142.21 12.5078H135.545C135.691 10.5449 137.039 9.12402 138.914 9.12402ZM142.269 17.1953C141.873 18.3965 140.672 19.1729 139.104 19.1729C136.922 19.1729 135.501 17.6348 135.501 15.3936V15.1299H146.326V13.8262C146.326 9.05078 143.44 5.95996 138.87 5.95996C134.227 5.95996 131.297 9.21191 131.297 14.2217C131.297 19.2461 134.197 22.3369 139.031 22.3369C142.913 22.3369 145.726 20.2715 146.194 17.1953H142.269Z" fill="#FFCE07"/>
<path d="M148.274 10.9111C148.274 13.2256 149.798 14.7783 152.771 15.4521L155.672 16.0967C157.078 16.4336 157.605 16.873 157.605 17.6641C157.605 18.6895 156.624 19.334 154.998 19.334C153.299 19.334 152.259 18.5723 152.054 17.2539H147.879C148.113 20.3154 150.691 22.3369 154.881 22.3369C159.026 22.3369 161.868 20.3008 161.868 17.21C161.868 14.8662 160.594 13.6211 157.444 12.918L154.441 12.2734C153.064 11.9512 152.391 11.4238 152.391 10.6475C152.391 9.63672 153.357 8.96289 154.837 8.96289C156.419 8.96289 157.43 9.73926 157.518 10.999H161.458C161.399 7.95215 158.836 5.95996 154.896 5.95996C150.867 5.95996 148.274 7.92285 148.274 10.9111Z" fill="#FFCE07"/>
<path d="M163.743 10.9111C163.743 13.2256 165.267 14.7783 168.24 15.4521L171.141 16.0967C172.547 16.4336 173.074 16.873 173.074 17.6641C173.074 18.6895 172.093 19.334 170.467 19.334C168.768 19.334 167.728 18.5723 167.522 17.2539H163.348C163.582 20.3154 166.16 22.3369 170.35 22.3369C174.495 22.3369 177.337 20.3008 177.337 17.21C177.337 14.8662 176.062 13.6211 172.913 12.918L169.91 12.2734C168.533 11.9512 167.859 11.4238 167.859 10.6475C167.859 9.63672 168.826 8.96289 170.306 8.96289C171.888 8.96289 172.898 9.73926 172.986 10.999H176.927C176.868 7.95215 174.305 5.95996 170.364 5.95996C166.336 5.95996 163.743 7.92285 163.743 10.9111Z" fill="#FFCE07"/>
<path d="M195.135 22.3662C200.32 22.3662 203.938 19.3779 204.437 14.6611H200.13C199.661 17.166 197.771 18.7041 195.149 18.7041C191.766 18.7041 189.642 15.9209 189.642 11.4092C189.642 6.95605 191.795 4.1582 195.135 4.1582C197.713 4.1582 199.705 5.85742 200.115 8.4502H204.422C204.085 3.71875 200.218 0.496094 195.135 0.496094C189.012 0.496094 185.13 4.6123 185.13 11.4238C185.13 18.25 188.982 22.3662 195.135 22.3662Z" fill="#FFCE07"/>
<path d="M214.017 22.3369C218.763 22.3369 221.795 19.3047 221.795 14.1338C221.795 9.03613 218.719 5.95996 214.017 5.95996C209.314 5.95996 206.238 9.05078 206.238 14.1338C206.238 19.29 209.271 22.3369 214.017 22.3369ZM214.017 19.0703C211.907 19.0703 210.574 17.2979 210.574 14.1484C210.574 11.0283 211.937 9.22656 214.017 9.22656C216.097 9.22656 217.444 11.0283 217.444 14.1484C217.444 17.2979 216.111 19.0703 214.017 19.0703Z" fill="#FFCE07"/>
<path d="M224.007 22H228.284V12.5225C228.284 10.7646 229.383 9.53418 231.009 9.53418C232.591 9.53418 233.543 10.5303 233.543 12.2148V22H237.659V12.4639C237.659 10.7207 238.729 9.53418 240.354 9.53418C242.01 9.53418 242.918 10.5303 242.918 12.3467V22H247.195V11.2773C247.195 8.11328 245.13 6.00391 242.054 6.00391C239.754 6.00391 237.879 7.24902 237.176 9.22656H237.088C236.561 7.17578 234.979 6.00391 232.708 6.00391C230.569 6.00391 228.885 7.24902 228.226 9.13867H228.138V6.29688H224.007V22Z" fill="#FFCE07"/>
<path d="M256.951 9.12402C258.855 9.12402 260.159 10.501 260.247 12.5078H253.582C253.729 10.5449 255.076 9.12402 256.951 9.12402ZM260.306 17.1953C259.91 18.3965 258.709 19.1729 257.142 19.1729C254.959 19.1729 253.538 17.6348 253.538 15.3936V15.1299H264.363V13.8262C264.363 9.05078 261.478 5.95996 256.907 5.95996C252.264 5.95996 249.334 9.21191 249.334 14.2217C249.334 19.2461 252.234 22.3369 257.068 22.3369C260.95 22.3369 263.763 20.2715 264.231 17.1953H260.306Z" fill="#FFCE07"/>
<path d="M266.312 10.9111C266.312 13.2256 267.835 14.7783 270.809 15.4521L273.709 16.0967C275.115 16.4336 275.643 16.873 275.643 17.6641C275.643 18.6895 274.661 19.334 273.035 19.334C271.336 19.334 270.296 18.5723 270.091 17.2539H265.916C266.15 20.3154 268.729 22.3369 272.918 22.3369C277.063 22.3369 279.905 20.3008 279.905 17.21C279.905 14.8662 278.631 13.6211 275.481 12.918L272.479 12.2734C271.102 11.9512 270.428 11.4238 270.428 10.6475C270.428 9.63672 271.395 8.96289 272.874 8.96289C274.456 8.96289 275.467 9.73926 275.555 10.999H279.495C279.437 7.95215 276.873 5.95996 272.933 5.95996C268.904 5.95996 266.312 7.92285 266.312 10.9111Z" fill="#FFCE07"/>
<path d="M310.022 6.29688H305.804L303.416 17.9424H303.328L300.53 6.29688H296.429L293.646 17.9424H293.558L291.185 6.29688H286.878L291.053 22H295.55L298.377 10.8965H298.465L301.307 22H305.862L310.022 6.29688Z" fill="#FFCE07"/>
<path d="M311.766 22H316.043V6.29688H311.766V22ZM313.904 4.56836C315.193 4.56836 316.189 3.58691 316.189 2.35645C316.189 1.11133 315.193 0.144531 313.904 0.144531C312.615 0.144531 311.619 1.11133 311.619 2.35645C311.619 3.58691 312.615 4.56836 313.904 4.56836Z" fill="#FFCE07"/>
<path d="M320.042 2.67871V6.29688H317.83V9.51953H320.042V17.7666C320.042 20.8281 321.478 22.0586 325.169 22.0586C326.033 22.0586 326.766 21.9854 327.205 21.8828V18.7334C326.941 18.7773 326.546 18.8066 326.165 18.8066C324.905 18.8066 324.319 18.2354 324.319 17.0342V9.51953H327.22V6.29688H324.319V2.67871H320.042Z" fill="#FFCE07"/>
<path d="M329.666 22H333.943V13.0352C333.943 10.9697 335.13 9.54883 337.151 9.54883C339.1 9.54883 340.096 10.7793 340.096 12.8008V22H344.373V11.8926C344.373 8.25977 342.381 6.00391 338.895 6.00391C336.507 6.00391 334.793 7.11719 333.958 9.09473H333.87V0.862305H329.666V22Z" fill="#FFCE07"/>
<path d="M359.124 19.1582C357.674 19.1582 356.707 18.4258 356.707 17.2539C356.707 16.1406 357.615 15.4229 359.212 15.3057L362.522 15.1006V16.2432C362.522 17.9424 360.984 19.1582 359.124 19.1582ZM357.718 22.249C359.681 22.249 361.629 21.2676 362.508 19.5977H362.596V22H366.727V11.2041C366.727 8.04004 364.104 5.95996 360.076 5.95996C355.916 5.95996 353.323 8.05469 353.162 11.1016H357.073C357.278 9.94434 358.289 9.15332 359.886 9.15332C361.497 9.15332 362.522 10.0029 362.522 11.4678V12.5078L358.567 12.7422C354.656 12.9766 352.459 14.6318 352.459 17.4883C352.459 20.3154 354.729 22.249 357.718 22.249Z" fill="#FFCE07"/>
<path d="M385.154 22.3662C390.34 22.3662 393.958 19.3779 394.456 14.6611H390.149C389.681 17.166 387.791 18.7041 385.169 18.7041C381.785 18.7041 379.661 15.9209 379.661 11.4092C379.661 6.95605 381.814 4.1582 385.154 4.1582C387.732 4.1582 389.725 5.85742 390.135 8.4502H394.441C394.104 3.71875 390.237 0.496094 385.154 0.496094C379.031 0.496094 375.149 4.6123 375.149 11.4238C375.149 18.25 379.002 22.3662 385.154 22.3662Z" fill="#FFCE07"/>
<path d="M404.036 22.3369C408.782 22.3369 411.814 19.3047 411.814 14.1338C411.814 9.03613 408.738 5.95996 404.036 5.95996C399.334 5.95996 396.258 9.05078 396.258 14.1338C396.258 19.29 399.29 22.3369 404.036 22.3369ZM404.036 19.0703C401.927 19.0703 400.594 17.2979 400.594 14.1484C400.594 11.0283 401.956 9.22656 404.036 9.22656C406.116 9.22656 407.464 11.0283 407.464 14.1484C407.464 17.2979 406.131 19.0703 404.036 19.0703Z" fill="#FFCE07"/>
<path d="M414.129 22H418.406V0.862305H414.129V22Z" fill="#FFCE07"/>
<path d="M421.395 22H425.672V0.862305H421.395V22Z" fill="#FFCE07"/>
<path d="M434.622 19.1582C433.172 19.1582 432.205 18.4258 432.205 17.2539C432.205 16.1406 433.113 15.4229 434.71 15.3057L438.021 15.1006V16.2432C438.021 17.9424 436.482 19.1582 434.622 19.1582ZM433.216 22.249C435.179 22.249 437.127 21.2676 438.006 19.5977H438.094V22H442.225V11.2041C442.225 8.04004 439.603 5.95996 435.574 5.95996C431.414 5.95996 428.821 8.05469 428.66 11.1016H432.571C432.776 9.94434 433.787 9.15332 435.384 9.15332C436.995 9.15332 438.021 10.0029 438.021 11.4678V12.5078L434.065 12.7422C430.154 12.9766 427.957 14.6318 427.957 17.4883C427.957 20.3154 430.228 22.249 433.216 22.249Z" fill="#FFCE07"/>
<path d="M454.324 22.249C458.279 22.249 460.696 19.2021 460.696 14.1484C460.696 9.08008 458.265 6.04785 454.31 6.04785C452.068 6.04785 450.325 7.16113 449.461 9.02148H449.373V0.862305H445.096V22H449.314V19.3047H449.402C450.267 21.1357 452.024 22.249 454.324 22.249ZM452.845 9.47559C454.969 9.47559 456.316 11.292 456.316 14.1484C456.316 17.0195 454.983 18.8066 452.845 18.8066C450.765 18.8066 449.358 16.9902 449.358 14.1484C449.358 11.3359 450.779 9.47559 452.845 9.47559Z" fill="#FFCE07"/>
<path d="M470.13 22.3369C474.876 22.3369 477.908 19.3047 477.908 14.1338C477.908 9.03613 474.832 5.95996 470.13 5.95996C465.428 5.95996 462.352 9.05078 462.352 14.1338C462.352 19.29 465.384 22.3369 470.13 22.3369ZM470.13 19.0703C468.021 19.0703 466.688 17.2979 466.688 14.1484C466.688 11.0283 468.05 9.22656 470.13 9.22656C472.21 9.22656 473.558 11.0283 473.558 14.1484C473.558 17.2979 472.225 19.0703 470.13 19.0703Z" fill="#FFCE07"/>
<path d="M480.12 22H484.397V13.2256C484.397 11.0137 485.628 9.72461 487.737 9.72461C488.353 9.72461 488.938 9.82715 489.29 9.97363V6.20898C488.997 6.12109 488.572 6.04785 488.074 6.04785C486.229 6.04785 484.896 7.13184 484.339 9.12402H484.251V6.29688H480.12V22Z" fill="#FFCE07"/>
<path d="M496.731 19.1582C495.281 19.1582 494.314 18.4258 494.314 17.2539C494.314 16.1406 495.223 15.4229 496.819 15.3057L500.13 15.1006V16.2432C500.13 17.9424 498.592 19.1582 496.731 19.1582ZM495.325 22.249C497.288 22.249 499.236 21.2676 500.115 19.5977H500.203V22H504.334V11.2041C504.334 8.04004 501.712 5.95996 497.684 5.95996C493.523 5.95996 490.931 8.05469 490.77 11.1016H494.681C494.886 9.94434 495.896 9.15332 497.493 9.15332C499.104 9.15332 500.13 10.0029 500.13 11.4678V12.5078L496.175 12.7422C492.264 12.9766 490.066 14.6318 490.066 17.4883C490.066 20.3154 492.337 22.249 495.325 22.249Z" fill="#FFCE07"/>
<path d="M508.245 2.67871V6.29688H506.033V9.51953H508.245V17.7666C508.245 20.8281 509.681 22.0586 513.372 22.0586C514.236 22.0586 514.969 21.9854 515.408 21.8828V18.7334C515.145 18.7773 514.749 18.8066 514.368 18.8066C513.108 18.8066 512.522 18.2354 512.522 17.0342V9.51953H515.423V6.29688H512.522V2.67871H508.245Z" fill="#FFCE07"/>
<path d="M517.84 22H522.117V6.29688H517.84V22ZM519.979 4.56836C521.268 4.56836 522.264 3.58691 522.264 2.35645C522.264 1.11133 521.268 0.144531 519.979 0.144531C518.689 0.144531 517.693 1.11133 517.693 2.35645C517.693 3.58691 518.689 4.56836 519.979 4.56836Z" fill="#FFCE07"/>
<path d="M532.181 22.3369C536.927 22.3369 539.959 19.3047 539.959 14.1338C539.959 9.03613 536.883 5.95996 532.181 5.95996C527.479 5.95996 524.402 9.05078 524.402 14.1338C524.402 19.29 527.435 22.3369 532.181 22.3369ZM532.181 19.0703C530.071 19.0703 528.738 17.2979 528.738 14.1484C528.738 11.0283 530.101 9.22656 532.181 9.22656C534.261 9.22656 535.608 11.0283 535.608 14.1484C535.608 17.2979 534.275 19.0703 532.181 19.0703Z" fill="#FFCE07"/>
<path d="M542.171 22H546.448V12.9912C546.448 10.9551 547.664 9.54883 549.583 9.54883C551.502 9.54883 552.469 10.7207 552.469 12.7715V22H556.746V11.8779C556.746 8.20117 554.783 6.00391 551.297 6.00391C548.88 6.00391 547.225 7.14648 546.39 9.09473H546.302V6.29688H542.171V22Z" fill="#FFCE07"/>
<path d="M575.13 22C579.642 22 582.439 19.6709 582.439 15.9502C582.439 13.1523 580.33 11.0576 577.459 10.8379V10.7207C579.7 10.3838 581.429 8.4502 581.429 6.13574C581.429 2.89844 578.938 0.862305 574.969 0.862305H565.77V22H575.13ZM570.193 4.1582H573.826C575.892 4.1582 577.078 5.125 577.078 6.82422C577.078 8.61133 575.73 9.65137 573.372 9.65137H570.193V4.1582ZM570.193 18.7041V12.5664H573.899C576.507 12.5664 577.928 13.6211 577.928 15.5986C577.928 17.6201 576.551 18.7041 574.002 18.7041H570.193Z" fill="#FFCE07"/>
<path d="M591.639 9.12402C593.543 9.12402 594.847 10.501 594.935 12.5078H588.27C588.416 10.5449 589.764 9.12402 591.639 9.12402ZM594.993 17.1953C594.598 18.3965 593.396 19.1729 591.829 19.1729C589.646 19.1729 588.226 17.6348 588.226 15.3936V15.1299H599.051V13.8262C599.051 9.05078 596.165 5.95996 591.595 5.95996C586.951 5.95996 584.021 9.21191 584.021 14.2217C584.021 19.2461 586.922 22.3369 591.756 22.3369C595.638 22.3369 598.45 20.2715 598.919 17.1953H594.993Z" fill="#FFCE07"/>
<path d="M602.405 2.67871V6.29688H600.193V9.51953H602.405V17.7666C602.405 20.8281 603.841 22.0586 607.532 22.0586C608.396 22.0586 609.129 21.9854 609.568 21.8828V18.7334C609.305 18.7773 608.909 18.8066 608.528 18.8066C607.269 18.8066 606.683 18.2354 606.683 17.0342V9.51953H609.583V6.29688H606.683V2.67871H602.405Z" fill="#FFCE07"/>
<path d="M633.958 6.29688H629.739L627.352 17.9424H627.264L624.466 6.29688H620.364L617.581 17.9424H617.493L615.12 6.29688H610.813L614.988 22H619.485L622.312 10.8965H622.4L625.242 22H629.798L633.958 6.29688Z" fill="#FFCE07"/>
<path d="M642.439 9.12402C644.344 9.12402 645.647 10.501 645.735 12.5078H639.07C639.217 10.5449 640.564 9.12402 642.439 9.12402ZM645.794 17.1953C645.398 18.3965 644.197 19.1729 642.63 19.1729C640.447 19.1729 639.026 17.6348 639.026 15.3936V15.1299H649.852V13.8262C649.852 9.05078 646.966 5.95996 642.396 5.95996C637.752 5.95996 634.822 9.21191 634.822 14.2217C634.822 19.2461 637.723 22.3369 642.557 22.3369C646.438 22.3369 649.251 20.2715 649.72 17.1953H645.794Z" fill="#FFCE07"/>
<path d="M659.109 9.12402C661.014 9.12402 662.317 10.501 662.405 12.5078H655.74C655.887 10.5449 657.234 9.12402 659.109 9.12402ZM662.464 17.1953C662.068 18.3965 660.867 19.1729 659.3 19.1729C657.117 19.1729 655.696 17.6348 655.696 15.3936V15.1299H666.521V13.8262C666.521 9.05078 663.636 5.95996 659.065 5.95996C654.422 5.95996 651.492 9.21191 651.492 14.2217C651.492 19.2461 654.393 22.3369 659.227 22.3369C663.108 22.3369 665.921 20.2715 666.39 17.1953H662.464Z" fill="#FFCE07"/>
<path d="M668.733 22H673.011V12.9912C673.011 10.9551 674.227 9.54883 676.146 9.54883C678.064 9.54883 679.031 10.7207 679.031 12.7715V22H683.309V11.8779C683.309 8.20117 681.346 6.00391 677.859 6.00391C675.442 6.00391 673.787 7.14648 672.952 9.09473H672.864V6.29688H668.733V22Z" fill="#FFCE07"/>
<path d="M130.11 67.3662C135.296 67.3662 138.914 64.3779 139.412 59.6611H135.105C134.637 62.166 132.747 63.7041 130.125 63.7041C126.741 63.7041 124.617 60.9209 124.617 56.4092C124.617 51.9561 126.771 49.1582 130.11 49.1582C132.688 49.1582 134.681 50.8574 135.091 53.4502H139.397C139.061 48.7188 135.193 45.4961 130.11 45.4961C123.987 45.4961 120.105 49.6123 120.105 56.4238C120.105 63.25 123.958 67.3662 130.11 67.3662Z" fill="#FFCE07"/>
<path d="M141.785 67H146.062V58.2256C146.062 56.0137 147.293 54.7246 149.402 54.7246C150.018 54.7246 150.604 54.8271 150.955 54.9736V51.209C150.662 51.1211 150.237 51.0479 149.739 51.0479C147.894 51.0479 146.561 52.1318 146.004 54.124H145.916V51.2969H141.785V67Z" fill="#FFCE07"/>
<path d="M159.231 54.124C161.136 54.124 162.439 55.501 162.527 57.5078H155.862C156.009 55.5449 157.356 54.124 159.231 54.124ZM162.586 62.1953C162.19 63.3965 160.989 64.1729 159.422 64.1729C157.239 64.1729 155.818 62.6348 155.818 60.3936V60.1299H166.644V58.8262C166.644 54.0508 163.758 50.96 159.188 50.96C154.544 50.96 151.614 54.2119 151.614 59.2217C151.614 64.2461 154.515 67.3369 159.349 67.3369C163.23 67.3369 166.043 65.2715 166.512 62.1953H162.586Z" fill="#FFCE07"/>
<path d="M174.92 64.1582C173.47 64.1582 172.503 63.4258 172.503 62.2539C172.503 61.1406 173.411 60.4229 175.008 60.3057L178.318 60.1006V61.2432C178.318 62.9424 176.78 64.1582 174.92 64.1582ZM173.514 67.249C175.477 67.249 177.425 66.2676 178.304 64.5977H178.392V67H182.522V56.2041C182.522 53.04 179.9 50.96 175.872 50.96C171.712 50.96 169.119 53.0547 168.958 56.1016H172.869C173.074 54.9443 174.085 54.1533 175.682 54.1533C177.293 54.1533 178.318 55.0029 178.318 56.4678V57.5078L174.363 57.7422C170.452 57.9766 168.255 59.6318 168.255 62.4883C168.255 65.3154 170.525 67.249 173.514 67.249Z" fill="#FFCE07"/>
<path d="M186.434 47.6787V51.2969H184.222V54.5195H186.434V62.7666C186.434 65.8281 187.869 67.0586 191.561 67.0586C192.425 67.0586 193.157 66.9854 193.597 66.8828V63.7334C193.333 63.7773 192.938 63.8066 192.557 63.8066C191.297 63.8066 190.711 63.2354 190.711 62.0342V54.5195H193.611V51.2969H190.711V47.6787H186.434Z" fill="#FFCE07"/>
<path d="M196.028 67H200.306V51.2969H196.028V67ZM198.167 49.5684C199.456 49.5684 200.452 48.5869 200.452 47.3564C200.452 46.1113 199.456 45.1445 198.167 45.1445C196.878 45.1445 195.882 46.1113 195.882 47.3564C195.882 48.5869 196.878 49.5684 198.167 49.5684Z" fill="#FFCE07"/>
<path d="M217.518 51.2969H213.05L209.798 63.2207H209.71L206.443 51.2969H201.858L207.293 67H212.127L217.518 51.2969Z" fill="#FFCE07"/>
<path d="M219.085 67H223.362V51.2969H219.085V67ZM221.224 49.5684C222.513 49.5684 223.509 48.5869 223.509 47.3564C223.509 46.1113 222.513 45.1445 221.224 45.1445C219.935 45.1445 218.938 46.1113 218.938 47.3564C218.938 48.5869 219.935 49.5684 221.224 49.5684Z" fill="#FFCE07"/>
<path d="M227.361 47.6787V51.2969H225.149V54.5195H227.361V62.7666C227.361 65.8281 228.797 67.0586 232.488 67.0586C233.353 67.0586 234.085 66.9854 234.524 66.8828V63.7334C234.261 63.7773 233.865 63.8066 233.484 63.8066C232.225 63.8066 231.639 63.2354 231.639 62.0342V54.5195H234.539V51.2969H231.639V47.6787H227.361Z" fill="#FFCE07"/>
<path d="M238.89 72.8154C242.903 72.8154 244.866 71.3799 246.214 67.3516L251.619 51.2969H247.107L243.768 63.5723H243.694L240.354 51.2969H235.652L241.116 67.0146C241.146 67.0732 240.984 67.7031 240.984 67.7617C240.691 69.0068 239.915 69.5049 238.348 69.5049C238.187 69.5049 237.41 69.5049 237.278 69.4756V72.7715C237.41 72.8008 238.743 72.8154 238.89 72.8154Z" fill="#FFCE07"/>
<path d="M254.329 71.6289L256.292 63.3672H252.22L251.121 71.6289H254.329Z" fill="#FFCE07"/>
<path d="M268.509 67V45.8623H264.085V67H268.509Z" fill="#FFCE07"/>
<path d="M277.488 67.249C279.803 67.249 281.619 66.0332 282.381 64.3047H282.454V67H286.673V45.8623H282.396V53.9922H282.308C281.546 52.249 279.788 51.0479 277.518 51.0479C273.577 51.0479 271.087 54.1387 271.087 59.1191C271.087 64.1436 273.562 67.249 277.488 67.249ZM278.938 54.4756C281.062 54.4756 282.425 56.292 282.425 59.1484C282.425 62.0195 281.062 63.8066 278.938 63.8066C276.785 63.8066 275.467 62.0342 275.467 59.1484C275.467 56.2773 276.785 54.4756 278.938 54.4756Z" fill="#FFCE07"/>
<path d="M296.575 54.124C298.479 54.124 299.783 55.501 299.871 57.5078H293.206C293.353 55.5449 294.7 54.124 296.575 54.124ZM299.93 62.1953C299.534 63.3965 298.333 64.1729 296.766 64.1729C294.583 64.1729 293.162 62.6348 293.162 60.3936V60.1299H303.987V58.8262C303.987 54.0508 301.102 50.96 296.531 50.96C291.888 50.96 288.958 54.2119 288.958 59.2217C288.958 64.2461 291.858 67.3369 296.692 67.3369C300.574 67.3369 303.387 65.2715 303.855 62.1953H299.93Z" fill="#FFCE07"/>
<path d="M312.264 64.1582C310.813 64.1582 309.847 63.4258 309.847 62.2539C309.847 61.1406 310.755 60.4229 312.352 60.3057L315.662 60.1006V61.2432C315.662 62.9424 314.124 64.1582 312.264 64.1582ZM310.857 67.249C312.82 67.249 314.769 66.2676 315.647 64.5977H315.735V67H319.866V56.2041C319.866 53.04 317.244 50.96 313.216 50.96C309.056 50.96 306.463 53.0547 306.302 56.1016H310.213C310.418 54.9443 311.429 54.1533 313.025 54.1533C314.637 54.1533 315.662 55.0029 315.662 56.4678V57.5078L311.707 57.7422C307.796 57.9766 305.599 59.6318 305.599 62.4883C305.599 65.3154 307.869 67.249 310.857 67.249Z" fill="#FFCE07"/>
<path d="M322.371 55.9111C322.371 58.2256 323.895 59.7783 326.868 60.4521L329.769 61.0967C331.175 61.4336 331.702 61.873 331.702 62.6641C331.702 63.6895 330.721 64.334 329.095 64.334C327.396 64.334 326.355 63.5723 326.15 62.2539H321.976C322.21 65.3154 324.788 67.3369 328.978 67.3369C333.123 67.3369 335.965 65.3008 335.965 62.21C335.965 59.8662 334.69 58.6211 331.541 57.918L328.538 57.2734C327.161 56.9512 326.487 56.4238 326.487 55.6475C326.487 54.6367 327.454 53.9629 328.934 53.9629C330.516 53.9629 331.526 54.7393 331.614 55.999H335.555C335.496 52.9521 332.933 50.96 328.992 50.96C324.964 50.96 322.371 52.9229 322.371 55.9111Z" fill="#FFCE07"/>
<path d="M341.253 71.6289L343.216 63.3672H339.144L338.045 71.6289H341.253Z" fill="#FFCE07"/>
<path d="M356.707 64.1582C355.257 64.1582 354.29 63.4258 354.29 62.2539C354.29 61.1406 355.198 60.4229 356.795 60.3057L360.105 60.1006V61.2432C360.105 62.9424 358.567 64.1582 356.707 64.1582ZM355.301 67.249C357.264 67.249 359.212 66.2676 360.091 64.5977H360.179V67H364.31V56.2041C364.31 53.04 361.688 50.96 357.659 50.96C353.499 50.96 350.906 53.0547 350.745 56.1016H354.656C354.861 54.9443 355.872 54.1533 357.469 54.1533C359.08 54.1533 360.105 55.0029 360.105 56.4678V57.5078L356.15 57.7422C352.239 57.9766 350.042 59.6318 350.042 62.4883C350.042 65.3154 352.312 67.249 355.301 67.249Z" fill="#FFCE07"/>
<path d="M367.078 67H371.355V57.9912C371.355 55.9551 372.571 54.5488 374.49 54.5488C376.409 54.5488 377.376 55.7207 377.376 57.7715V67H381.653V56.8779C381.653 53.2012 379.69 51.0039 376.204 51.0039C373.787 51.0039 372.132 52.1465 371.297 54.0947H371.209V51.2969H367.078V67Z" fill="#FFCE07"/>
<path d="M390.193 67.249C392.508 67.249 394.324 66.0332 395.086 64.3047H395.159V67H399.378V45.8623H395.101V53.9922H395.013C394.251 52.249 392.493 51.0479 390.223 51.0479C386.282 51.0479 383.792 54.1387 383.792 59.1191C383.792 64.1436 386.268 67.249 390.193 67.249ZM391.644 54.4756C393.768 54.4756 395.13 56.292 395.13 59.1484C395.13 62.0195 393.768 63.8066 391.644 63.8066C389.49 63.8066 388.172 62.0342 388.172 59.1484C388.172 56.2773 389.49 54.4756 391.644 54.4756Z" fill="#FFCE07"/>
<path d="M418.025 67V49.5098H424.148V45.8623H407.493V49.5098H413.602V67H418.025Z" fill="#FFCE07"/>
<path d="M429.817 54.124C431.722 54.124 433.025 55.501 433.113 57.5078H426.448C426.595 55.5449 427.942 54.124 429.817 54.124ZM433.172 62.1953C432.776 63.3965 431.575 64.1729 430.008 64.1729C427.825 64.1729 426.404 62.6348 426.404 60.3936V60.1299H437.229V58.8262C437.229 54.0508 434.344 50.96 429.773 50.96C425.13 50.96 422.2 54.2119 422.2 59.2217C422.2 64.2461 425.101 67.3369 429.935 67.3369C433.816 67.3369 436.629 65.2715 437.098 62.1953H433.172Z" fill="#FFCE07"/>
<path d="M453.709 57.1416C453.519 53.582 450.823 50.96 446.575 50.96C441.873 50.96 438.87 54.0947 438.87 59.1338C438.87 64.2607 441.873 67.3369 446.604 67.3369C450.735 67.3369 453.504 64.9492 453.724 61.2432H449.739C449.476 62.957 448.362 63.9824 446.648 63.9824C444.524 63.9824 443.206 62.2246 443.206 59.1338C443.206 56.1016 444.524 54.3145 446.634 54.3145C448.392 54.3145 449.49 55.4863 449.739 57.1416H453.709Z" fill="#FFCE07"/>
<path d="M455.892 67H460.169V58.0352C460.169 55.9697 461.355 54.5488 463.377 54.5488C465.325 54.5488 466.321 55.7793 466.321 57.8008V67H470.599V56.8926C470.599 53.2598 468.606 51.0039 465.12 51.0039C462.732 51.0039 461.019 52.1172 460.184 54.0947H460.096V45.8623H455.892V67Z" fill="#FFCE07"/>
<path d="M473.338 67H477.615V57.9912C477.615 55.9551 478.831 54.5488 480.75 54.5488C482.669 54.5488 483.636 55.7207 483.636 57.7715V67H487.913V56.8779C487.913 53.2012 485.95 51.0039 482.464 51.0039C480.047 51.0039 478.392 52.1465 477.557 54.0947H477.469V51.2969H473.338V67Z" fill="#FFCE07"/>
<path d="M497.83 67.3369C502.576 67.3369 505.608 64.3047 505.608 59.1338C505.608 54.0361 502.532 50.96 497.83 50.96C493.128 50.96 490.052 54.0508 490.052 59.1338C490.052 64.29 493.084 67.3369 497.83 67.3369ZM497.83 64.0703C495.721 64.0703 494.388 62.2979 494.388 59.1484C494.388 56.0283 495.75 54.2266 497.83 54.2266C499.91 54.2266 501.258 56.0283 501.258 59.1484C501.258 62.2979 499.925 64.0703 497.83 64.0703Z" fill="#FFCE07"/>
<path d="M507.923 67H512.2V45.8623H507.923V67Z" fill="#FFCE07"/>
<path d="M522.293 67.3369C527.039 67.3369 530.071 64.3047 530.071 59.1338C530.071 54.0361 526.995 50.96 522.293 50.96C517.591 50.96 514.515 54.0508 514.515 59.1338C514.515 64.29 517.547 67.3369 522.293 67.3369ZM522.293 64.0703C520.184 64.0703 518.851 62.2979 518.851 59.1484C518.851 56.0283 520.213 54.2266 522.293 54.2266C524.373 54.2266 525.721 56.0283 525.721 59.1484C525.721 62.2979 524.388 64.0703 522.293 64.0703Z" fill="#FFCE07"/>
<path d="M539.534 63.6602C537.41 63.6602 536.092 61.9902 536.092 59.1191C536.092 56.2627 537.425 54.4756 539.534 54.4756C541.673 54.4756 543.035 56.292 543.035 59.1191C543.035 61.9609 541.673 63.6602 539.534 63.6602ZM539.461 72.918C544.163 72.918 547.298 70.5303 547.298 66.7803V51.2969H543.079V54.0361H543.006C542.186 52.2344 540.413 51.0479 538.157 51.0479C534.173 51.0479 531.712 54.1094 531.712 59.0898C531.712 63.9971 534.246 66.9561 538.084 66.9561C540.354 66.9561 542.2 65.8135 542.933 64.1436H543.021V66.8975C543.021 68.7139 541.79 69.9443 539.578 69.9443C537.952 69.9443 536.722 69.1973 536.385 68.1133H532.195C532.532 70.9111 535.33 72.918 539.461 72.918Z" fill="#FFCE07"/>
<path d="M552.103 72.8154C556.116 72.8154 558.079 71.3799 559.427 67.3516L564.832 51.2969H560.32L556.98 63.5723H556.907L553.567 51.2969H548.865L554.329 67.0146C554.358 67.0732 554.197 67.7031 554.197 67.7617C553.904 69.0068 553.128 69.5049 551.561 69.5049C551.399 69.5049 550.623 69.5049 550.491 69.4756V72.7715C550.623 72.8008 551.956 72.8154 552.103 72.8154Z" fill="#FFCE07"/>
</svg>
