<svg width="626" height="59" viewBox="0 0 626 59" fill="none" xmlns="http://www.w3.org/2000/svg">
<path d="M6.21875 58.1562C12.0938 58.1562 14.7812 55.875 17.5625 48.2812L30.3438 13.5H24.625L15.625 40.5625H15.5312L6.53125 13.5H0.71875L12.7188 46.0312L11.9688 48.3125C10.7188 52.0938 9.03125 53.5625 6 53.5625C5.3125 53.5625 4.46875 53.5312 3.875 53.4062V57.9688C4.46875 58.0938 5.5625 58.1562 6.21875 58.1562Z" fill="#272727"/>
<path d="M47.1875 46.5625C56.1562 46.5625 62.2188 40.0938 62.2188 29.75C62.2188 19.375 56.1562 12.9375 47.1875 12.9375C38.1875 12.9375 32.125 19.375 32.125 29.75C32.125 40.0938 38.1875 46.5625 47.1875 46.5625ZM47.1875 41.7812C41.4375 41.7812 37.6562 37.4062 37.6562 29.75C37.6562 22.0938 41.4375 17.7188 47.1875 17.7188C52.9375 17.7188 56.6875 22.0938 56.6875 29.75C56.6875 37.4062 52.9375 41.7812 47.1875 41.7812Z" fill="#272727"/>
<path d="M94.4062 13.5H88.9688V32.5938C88.9688 38.125 85.7812 41.75 80.5 41.75C75.4688 41.75 73 38.9062 73 33.625V13.5H67.5625V34.5938C67.5625 41.9688 71.7188 46.5625 78.8125 46.5625C83.8125 46.5625 87.1875 44.4688 89.125 40.7188H89.25V46H94.4062V13.5Z" fill="#272727"/>
<path d="M101.469 46H106.906V25.75C106.906 21.1562 109.656 18.125 113.875 18.125C115.188 18.125 116.344 18.2812 116.781 18.4375V13.1562C116.344 13.0938 115.531 12.9375 114.594 12.9375C110.781 12.9375 107.781 15.2188 106.719 18.8125H106.594V13.5H101.469V46Z" fill="#272727"/>
<path d="M146.656 46.5625C151.344 46.5625 155.062 44.25 157.156 40.5H157.25V46H162.438V0.90625H157V18.7812H156.875C154.938 15.2188 151.188 12.9375 146.531 12.9375C138.344 12.9375 132.75 19.5625 132.75 29.75C132.75 39.9375 138.375 46.5625 146.656 46.5625ZM147.688 17.7188C153.281 17.7188 157.031 22.5 157.031 29.75C157.031 37.0312 153.281 41.7812 147.688 41.7812C141.938 41.7812 138.312 37.125 138.312 29.75C138.312 22.4062 141.938 17.7188 147.688 17.7188Z" fill="#272727"/>
<path d="M182.812 17.6562C187.938 17.6562 191.344 21.5312 191.469 26.9688H173.812C174.156 21.5625 177.719 17.6562 182.812 17.6562ZM191.344 36.6875C190.438 39.75 187.406 41.8438 183.281 41.8438C177.438 41.8438 173.781 37.75 173.781 31.5312V31.2188H197.094V29.1562C197.094 19.3125 191.688 12.9375 182.906 12.9375C173.938 12.9375 168.188 19.7812 168.188 29.875C168.188 40.0938 173.844 46.5625 183.156 46.5625C190.25 46.5625 195.75 42.375 196.688 36.6875H191.344Z" fill="#272727"/>
<path d="M229.25 13.5H223.594L214.594 40.2188H214.469L205.5 13.5H199.781L211.75 46H217.312L229.25 13.5Z" fill="#272727"/>
<path d="M245.625 17.6562C250.75 17.6562 254.156 21.5312 254.281 26.9688H236.625C236.969 21.5625 240.531 17.6562 245.625 17.6562ZM254.156 36.6875C253.25 39.75 250.219 41.8438 246.094 41.8438C240.25 41.8438 236.594 37.75 236.594 31.5312V31.2188H259.906V29.1562C259.906 19.3125 254.5 12.9375 245.719 12.9375C236.75 12.9375 231 19.7812 231 29.875C231 40.0938 236.656 46.5625 245.969 46.5625C253.062 46.5625 258.562 42.375 259.5 36.6875H254.156Z" fill="#272727"/>
<path d="M265.688 46H271.125V0.90625H265.688V46Z" fill="#272727"/>
<path d="M291.938 46.5625C300.906 46.5625 306.969 40.0938 306.969 29.75C306.969 19.375 300.906 12.9375 291.938 12.9375C282.938 12.9375 276.875 19.375 276.875 29.75C276.875 40.0938 282.938 46.5625 291.938 46.5625ZM291.938 41.7812C286.188 41.7812 282.406 37.4062 282.406 29.75C282.406 22.0938 286.188 17.7188 291.938 17.7188C297.688 17.7188 301.438 22.0938 301.438 29.75C301.438 37.4062 297.688 41.7812 291.938 41.7812Z" fill="#272727"/>
<path d="M328.25 12.9375C323.531 12.9375 319.75 15.3438 317.75 19H317.625V13.5H312.469V56.8438H317.906V40.7188H318.031C319.969 44.2812 323.719 46.5625 328.375 46.5625C336.562 46.5625 342.156 39.9375 342.156 29.75C342.156 19.5625 336.531 12.9375 328.25 12.9375ZM327.188 41.7812C321.625 41.7812 317.875 37 317.875 29.75C317.875 22.5312 321.625 17.7188 327.188 17.7188C332.969 17.7188 336.594 22.4062 336.594 29.75C336.594 37.125 332.969 41.7812 327.188 41.7812Z" fill="#272727"/>
<path d="M347.656 46H353.094V25.625C353.094 21.125 356.219 17.75 360.531 17.75C364.562 17.75 367.188 20.3125 367.188 24.2188V46H372.625V25.3438C372.625 20.9375 375.656 17.75 379.969 17.75C384.25 17.75 386.719 20.375 386.719 24.8125V46H392.156V23.5625C392.156 17.125 388 12.9375 381.562 12.9375C377 12.9375 373.188 15.25 371.375 19.125H371.25C369.844 15.1875 366.562 12.9375 362.125 12.9375C357.75 12.9375 354.438 15.25 352.906 18.6875H352.781V13.5H347.656V46Z" fill="#272727"/>
<path d="M412.125 17.6562C417.25 17.6562 420.656 21.5312 420.781 26.9688H403.125C403.469 21.5625 407.031 17.6562 412.125 17.6562ZM420.656 36.6875C419.75 39.75 416.719 41.8438 412.594 41.8438C406.75 41.8438 403.094 37.75 403.094 31.5312V31.2188H426.406V29.1562C426.406 19.3125 421 12.9375 412.219 12.9375C403.25 12.9375 397.5 19.7812 397.5 29.875C397.5 40.0938 403.156 46.5625 412.469 46.5625C419.562 46.5625 425.062 42.375 426 36.6875H420.656Z" fill="#272727"/>
<path d="M431.906 46H437.344V26.875C437.344 21.375 440.688 17.75 445.812 17.75C450.812 17.75 453.281 20.625 453.281 25.875V46H458.719V24.9062C458.719 17.5312 454.594 12.9375 447.469 12.9375C442.438 12.9375 438.969 15.1875 437.156 18.6875H437.031V13.5H431.906V46Z" fill="#272727"/>
<path d="M467.406 5.65625V13.5H462.562V17.9688H467.406V37.5625C467.406 43.8125 469.719 46.25 475.688 46.25C476.969 46.25 478.469 46.1562 479.125 46V41.4375C478.75 41.5 477.5 41.5938 476.875 41.5938C474.094 41.5938 472.844 40.25 472.844 37.2812V17.9688H479.156V13.5H472.844V5.65625H467.406Z" fill="#272727"/>
<path d="M499.844 5.65625V13.5H495V17.9688H499.844V37.5625C499.844 43.8125 502.156 46.25 508.125 46.25C509.406 46.25 510.906 46.1562 511.562 46V41.4375C511.188 41.5 509.938 41.5938 509.312 41.5938C506.531 41.5938 505.281 40.25 505.281 37.2812V17.9688H511.594V13.5H505.281V5.65625H499.844Z" fill="#272727"/>
<path d="M529.5 17.6562C534.625 17.6562 538.031 21.5312 538.156 26.9688H520.5C520.844 21.5625 524.406 17.6562 529.5 17.6562ZM538.031 36.6875C537.125 39.75 534.094 41.8438 529.969 41.8438C524.125 41.8438 520.469 37.75 520.469 31.5312V31.2188H543.781V29.1562C543.781 19.3125 538.375 12.9375 529.594 12.9375C520.625 12.9375 514.875 19.7812 514.875 29.875C514.875 40.0938 520.531 46.5625 529.844 46.5625C536.938 46.5625 542.438 42.375 543.375 36.6875H538.031Z" fill="#272727"/>
<path d="M560 41.9375C556.094 41.9375 553.5 39.9062 553.5 36.8125C553.5 33.75 556 31.8125 560.375 31.5312L569.062 31V33.6562C569.062 38.3438 565.125 41.9375 560 41.9375ZM558.781 46.5625C563.156 46.5625 567.281 44.125 569.219 40.4062H569.344V46H574.5V23.5312C574.5 17.0625 569.688 12.9375 562.062 12.9375C554.375 12.9375 549.562 17.25 549.188 22.875H554.438C555.125 19.6875 557.75 17.7188 561.938 17.7188C566.438 17.7188 569.062 20.0938 569.062 24.0625V26.7812L559.75 27.3125C552.25 27.75 547.969 31.25 547.969 36.8125C547.969 42.6562 552.312 46.5625 558.781 46.5625Z" fill="#272727"/>
<path d="M581.406 46H586.844V25.625C586.844 21.125 589.969 17.75 594.281 17.75C598.312 17.75 600.938 20.3125 600.938 24.2188V46H606.375V25.3438C606.375 20.9375 609.406 17.75 613.719 17.75C618 17.75 620.469 20.375 620.469 24.8125V46H625.906V23.5625C625.906 17.125 621.75 12.9375 615.312 12.9375C610.75 12.9375 606.938 15.25 605.125 19.125H605C603.594 15.1875 600.312 12.9375 595.875 12.9375C591.5 12.9375 588.188 15.25 586.656 18.6875H586.531V13.5H581.406V46Z" fill="#272727"/>
</svg>
